Coordinates
version=1
nRows=29
nColumns=24
inDegrees=yes

Units are S.I. units (second, meters, Newtons, ...)
Angles are in degrees.

endheader
time	pelvis_tilt	pelvis_list	pelvis_rotation	pelvis_tx	pelvis_ty	pelvis_tz	hip_flexion_r	hip_adduction_r	hip_rotation_r	knee_angle_r	ankle_angle_r	subtalar_angle_r	mtp_angle_r	hip_flexion_l	hip_adduction_l	hip_rotation_l	knee_angle_l	ankle_angle_l	subtalar_angle_l	mtp_angle_l	lumbar_extension	lumbar_bending	lumbar_rotation
      3.62500000	    -10.35673798	     -4.13456348	     -1.50633185	     -1.41063475	     -0.01068229	      0.51766868	      4.32704103	      9.33855493	     12.45843885	     -9.29954527	      1.22622036	     -6.94523540	      0.79510821	     35.76214564	     -5.58768237	     -1.51956878	    -39.07963426	     -3.71781067	      5.21463072	     16.47771974	      7.04529671	      3.25372432	      8.35445527
      3.63000000	    -10.42026785	     -3.97864666	     -1.71236346	     -1.40449154	     -0.01116255	      0.51784584	      3.88911640	      9.17945035	     12.73999991	     -9.12306857	      1.36510937	     -7.05034530	      0.74328410	     35.95093293	     -5.52976487	     -1.69927220	    -37.42309202	     -3.57614184	      5.35018145	     15.84710728	      7.06968567	      3.11036693	      8.66623157
      3.63500000	    -10.49270718	     -3.82529827	     -1.91528729	     -1.39834555	     -0.01171595	      0.51800720	      3.47294954	      9.02386530	     13.01665083	     -8.97069823	      1.51778098	     -7.16714885	      0.66196059	     36.11329536	     -5.48090683	     -1.88146978	    -35.71604186	     -3.46058732	      5.51477939	     15.24602929	      7.10300203	      2.97030236	      8.96930680
      3.64000000	    -10.52288294	     -3.67906837	     -2.07632941	     -1.39216413	     -0.01229007	      0.51813292	      3.01094673	      8.87187272	     13.25133684	     -8.82190994	      1.67470752	     -7.30160548	      0.49603262	     36.20216290	     -5.42367737	     -2.03692423	    -33.98768646	     -3.29537881	      5.79126825	     14.50151981	      7.09594915	      2.82545151	      9.20778007
      3.64500000	    -10.68873286	     -3.54821114	     -2.28167459	     -1.38601001	     -0.01308066	      0.51828909	      2.72834547	      8.74582752	     13.48269004	     -8.72993060	      1.86558732	     -7.37610085	      0.44897217	     36.41264694	     -5.41598109	     -2.23120834	    -32.20785029	     -3.30853884	      5.93914091	     14.12634391	      7.23285169	      2.71121037	      9.47987195
      3.65000000	    -10.74067575	     -3.40397664	     -2.50072899	     -1.37988904	     -0.01379583	      0.51844136	      2.33237054	      8.60212745	     13.73387374	     -8.66003550	      2.06759750	     -7.47033775	      0.33478177	     36.45276697	     -5.40193309	     -2.43139667	    -30.39476026	     -3.27917298	      6.10982843	     13.62955699	      7.23532833	      2.58647017	      9.82401312
      3.65500000	    -10.86340201	     -3.27452156	     -2.66835138	     -1.37367463	     -0.01465501	      0.51853866	      2.00563776	      8.46780427	     13.90126135	     -8.57405555	      2.27245365	     -7.52125301	      0.26366288	     36.56596731	     -5.38519432	     -2.63680233	    -28.58970773	     -3.30581540	      6.32060574	     13.23384223	      7.33122788	      2.46740462	     10.03817860
      3.66000000	    -10.97205657	     -3.14300590	     -2.84981312	     -1.36751733	     -0.01557999	      0.51868259	      1.69591483	      8.33986384	     14.04524691	     -8.54687512	      2.52203034	     -7.56653857	      0.22406499	     36.64391679	     -5.37530767	     -2.83358960	    -26.78864925	     -3.33597659	      6.51614620	     12.86803816	      7.39923960	      2.34063804	     10.28202152
      3.66500000	    -10.97710520	     -3.01188859	     -3.06560973	     -1.36130782	     -0.01640323	      0.51875737	      1.25700679	      8.18888626	     14.18355165	     -8.49031801	      2.78639433	     -7.48402804	      0.16136878	     36.57635637	     -5.37674248	     -3.10075101	    -25.00081064	     -3.33838128	      6.65767068	     12.41672025	      7.35963824	      2.23312999	     10.62731891
      3.67000000	    -11.06850900	     -2.88379719	     -3.23459641	     -1.35505170	     -0.01739277	      0.51880864	      0.91878373	      8.04188452	     14.26336041	     -8.44367966	      3.05898713	     -7.39556612	      0.16524267	     36.62066901	     -5.36173282	     -3.37093977	    -23.27190413	     -3.39792648	      6.83465874	     12.07302670	      7.42141578	      2.11604152	     10.85242591
      3.67500000	    -11.09296673	     -2.74738535	     -3.42601658	     -1.34880699	     -0.01836397	      0.51884327	      0.52841362	      7.87885797	     14.30514497	     -8.43331741	      3.38252503	     -7.23123559	      0.22152459	     36.58043050	     -5.33971212	     -3.65390822	    -21.58980024	     -3.42637933	      6.96263685	     11.73981755	      7.40465812	      1.99513973	     11.13459800
      3.68000000	    -11.12349220	     -2.60500760	     -3.60194960	     -1.34251252	     -0.01937878	      0.51883532	      0.14438690	      7.70004956	     14.31872648	     -8.41973024	      3.70836795	     -7.02872748	      0.33007783	     36.55849550	     -5.29688273	     -3.95360219	    -19.98729753	     -3.47582386	      7.08306967	     11.43809812	      7.40082179	      1.86609171	     11.38143428
      3.68500000	    -11.13703452	     -2.45892868	     -3.77688191	     -1.33618488	     -0.02041012	      0.51877636	     -0.25243156	      7.50691152	     14.30992725	     -8.41435397	      4.03952117	     -6.78407138	      0.49540313	     36.52972520	     -5.23725646	     -4.26086459	    -18.47651318	     -3.52151415	      7.18025101	     11.15383176	      7.38300235	      1.73653833	     11.62874874
      3.69000000	    -11.12600155	     -2.30206619	     -3.94883819	     -1.32981698	     -0.02144368	      0.51868217	     -0.66774897	      7.29331738	     14.27914000	     -8.42211070	      4.37695038	     -6.50279374	      0.71455268	     36.48632731	     -5.15151208	     -4.55103839	    -17.06830154	     -3.55928753	      7.26061001	     10.86922365	      7.34090614	      1.59507600	     11.87188569
      3.69500000	    -11.13058090	     -2.13977107	     -4.11758869	     -1.32340425	     -0.02250545	      0.51854690	     -1.06409882	      7.06708851	     14.26184643	     -8.43338926	      4.68963897	     -6.22333159	      0.94704264	     36.47984796	     -5.04722103	     -4.83411063	    -15.77822723	     -3.61544895	      7.33870372	     10.59285511	      7.32262977	      1.45134349	     12.10080176
      3.70000000	    -11.11795766	     -1.95706832	     -4.29545946	     -1.31694116	     -0.02359264	      0.51839857	     -1.45588148	      6.81878109	     14.23493163	     -8.49320428	      5.02453782	     -5.95739820	      1.19883263	     36.45947226	     -4.91305560	     -5.05784623	    -14.59768290	     -3.62009360	      7.39814421	     10.33611083	      7.29195000	      1.28650203	     12.33113959
      3.70500000	    -11.03941386	     -1.77432610	     -4.47828474	     -1.31046413	     -0.02459482	      0.51820108	     -1.91464806	      6.55261425	     14.19416740	     -8.55477028	      5.35270149	     -5.60553084	      1.49459591	     36.37262080	     -4.76303800	     -5.20775150	    -13.52787165	     -3.62435100	      7.44642995	     10.05152711	      7.18939117	      1.12264782	     12.59474623
      3.71000000	    -10.95243734	     -1.58591039	     -4.64532946	     -1.30392778	     -0.02559851	      0.51798318	     -2.37814882	      6.27653044	     14.14361537	     -8.62634673	      5.65525624	     -5.27154923	      1.78571064	     36.28694319	     -4.58795036	     -5.27179372	    -12.57808320	     -3.61813018	      7.50305153	      9.77198680	      7.08409361	      0.94429593	     12.83034565
      3.71500000	    -10.85748815	     -1.39448296	     -4.81822164	     -1.29736909	     -0.02658658	      0.51772786	     -2.83478062	      5.99216895	     14.10773570	     -8.72755440	      5.93349249	     -4.94135835	      2.06893247	     36.19592116	     -4.40245784	     -5.25579695	    -11.74098410	     -3.59856690	      7.57636729	      9.52066185	      6.97101457	      0.77059772	     13.07154269
      3.72000000	    -10.75865633	     -1.19843346	     -4.98388127	     -1.29076766	     -0.02756756	      0.51747932	     -3.28716484	      5.70124186	     14.07283886	     -8.84647397	      6.19183773	     -4.61886295	      2.33645069	     36.10224149	     -4.20491538	     -5.16026921	    -11.01336669	     -3.57099419	      7.68667024	      9.31949883	      6.86028203	      0.58295183	     13.30443384
      3.72500000	    -10.66435109	     -1.00056451	     -5.15149997	     -1.28412430	     -0.02854826	      0.51724236	     -3.72367093	      5.40774256	     14.04674455	     -8.98895899	      6.42966688	     -4.30104786	      2.58429174	     36.01111651	     -4.00563051	     -4.99438246	    -10.39140706	     -3.53361558	      7.83991837	      9.18910320	      6.75828996	      0.38975479	     13.53730174
      3.73000000	    -10.57831132	     -0.79643422	     -5.31956099	     -1.27742723	     -0.02952491	      0.51700546	     -4.14088592	      5.10531453	     14.02214596	     -9.15297297	      6.64824863	     -3.97752979	      2.81615151	     35.92324173	     -3.80055204	     -4.77811229	     -9.87122296	     -3.48356421	      8.04303173	      9.14000413	      6.67179270	      0.18730216	     13.76410797
      3.73500000	    -10.50726679	     -0.59145892	     -5.48820930	     -1.27066152	     -0.03051193	      0.51678100	     -4.53631733	      4.80075107	     13.99654270	     -9.33148422	      6.85005592	     -3.64641120	      3.03538645	     35.84484862	     -3.59719454	     -4.52512685	     -9.45290467	     -3.41563541	      8.29434156	      9.17224226	      6.61033112	     -0.01625933	     13.98534880
      3.74000000	    -10.44477422	     -0.38177999	     -5.64587821	     -1.26384392	     -0.03149662	      0.51656242	     -4.91162466	      4.48941515	     13.96105843	     -9.53285587	      7.03213474	     -3.28953977	      3.25534632	     35.77725381	     -3.38571352	     -4.25196049	     -9.14920418	     -3.34240167	      8.58930740	      9.27262206	      6.56370636	     -0.23209317	     14.20496416
      3.74500000	    -10.40771489	     -0.17046715	     -5.80622508	     -1.25693968	     -0.03249851	      0.51635960	     -5.25529516	      4.17475101	     13.91621751	     -9.74502488	      7.19413991	     -2.91507163	      3.47416785	     35.73468746	     -3.17770775	     -3.97297959	     -8.96309929	     -3.24976116	      8.90475508	      9.42666266	      6.55492545	     -0.45282827	     14.41201152
      3.75000000	    -10.39039019	      0.03978674	     -5.94769445	     -1.24993133	     -0.03352477	      0.51612268	     -5.57620695	      3.85713357	     13.85541014	     -9.96903323	      7.34300129	     -2.50340598	      3.70497310	     35.71868358	     -2.95832202	     -3.70474398	     -8.90315933	     -3.13905482	      9.21874388	      9.61617735	      6.58046398	     -0.67039922	     14.61619677
      3.75500000	    -10.39832617	      0.24988165	     -6.08095224	     -1.24282612	     -0.03457465	      0.51588075	     -5.86779938	      3.53747417	     13.77310758	    -10.20108145	      7.47380804	     -2.05997754	      3.94736609	     35.73985985	     -2.73472676	     -3.44775378	     -8.98309106	     -3.02559612	      9.50035069	      9.81380641	      6.64467909	     -0.89011471	     14.80613756
      3.76000000	    -10.43103602	      0.45970487	     -6.20115019	     -1.23559986	     -0.03564343	      0.51560551	     -6.13136798	      3.21349194	     13.65836409	    -10.44235884	      7.58347657	     -1.56489319	      4.21181051	     35.79744262	     -2.50060566	     -3.20964756	     -9.20207045	     -2.91977590	      9.71980965	     10.00056308	      6.74963477	     -1.10831028	     14.97752086
      3.76500000	    -10.48862247	      0.66803933	     -6.29820444	     -1.22826591	     -0.03673847	      0.51527832	     -6.36477548	      2.88759436	     13.50873176	    -10.69733351	      7.67546242	     -1.02349679	      4.50102824	     35.89840950	     -2.24941832	     -2.98063436	     -9.56424193	     -2.84780660	      9.84519586	     10.15572696	      6.89446294	     -1.32557511	     15.13065656
